HIERARCHY
ROOT Hips
{
	OFFSET 0.00000 0.00000 0.00000
	CHANNELS 6 Xposition Yposition Zposition Zrotation Yrotation Xrotation 
	JOINT LHipJoint
	{
		OFFSET 0 0 0
		CHANNELS 3 Zrotation Yrotation Xrotation
		JOINT LeftUpLeg
		{
			OFFSET 1.17584 -1.63585 1.00361
			CHANNELS 3 Zrotation Yrotation Xrotation
			JOINT LeftLeg
			{
				OFFSET 2.23889 -6.15131 0.00000
				CHANNELS 3 Zrotation Yrotation Xrotation
				JOINT LeftFoot
				{
					OFFSET 2.65161 -7.28525 0.00000
					CHANNELS 3 Zrotation Yrotation Xrotation
					JOINT LeftToeBase
					{
						OFFSET 0.24898 -0.68407 1.57235
						CHANNELS 3 Zrotation Yrotation Xrotation
						End Site
						{
							OFFSET 0.00000 -0.00000 0.85838
						}
					}
				}
			}
		}
	}
	JOINT RHipJoint
	{
		OFFSET 0 0 0
		CHANNELS 3 Zrotation Yrotation Xrotation
		JOINT RightUpLeg
		{
			OFFSET -1.15592 -1.63585 1.00361
			CHANNELS 3 Zrotation Yrotation Xrotation
			JOINT RightLeg
			{
				OFFSET -2.34071 -6.43104 0.00000
				CHANNELS 3 Zrotation Yrotation Xrotation
				JOINT RightFoot
				{
					OFFSET -2.59113 -7.11908 0.00000
					CHANNELS 3 Zrotation Yrotation Xrotation
					JOINT RightToeBase
					{
						OFFSET -0.17867 -0.49089 1.70981
						CHANNELS 3 Zrotation Yrotation Xrotation
						End Site
						{
							OFFSET -0.00000 -0.00000 0.89861
						}
					}
				}
			}
		}
	}
	JOINT LowerBack
	{
		OFFSET 0 0 0
		CHANNELS 3 Zrotation Yrotation Xrotation
		JOINT Spine
		{
			OFFSET -0.02255 1.90764 -0.16605
			CHANNELS 3 Zrotation Yrotation Xrotation
			JOINT Spine1
			{
				OFFSET -0.00365 1.92150 -0.04898
				CHANNELS 3 Zrotation Yrotation Xrotation
				JOINT Neck
				{
					OFFSET 0 0 0
					CHANNELS 3 Zrotation Yrotation Xrotation
					JOINT Neck1
					{
						OFFSET 0.00372 1.59170 0.08694
						CHANNELS 3 Zrotation Yrotation Xrotation
						JOINT Head
						{
							OFFSET 0.12558 1.58643 -0.08078
							CHANNELS 3 Zrotation Yrotation Xrotation
							End Site
							{
								OFFSET 0.04211 1.60835 -0.03803
							}
						}
					}
				}
				JOINT LeftShoulder
				{
					OFFSET 0 0 0
					CHANNELS 3 Zrotation Yrotation Xrotation
					JOINT LeftArm
					{
						OFFSET 3.69324 0.96316 0.19077
						CHANNELS 3 Zrotation Yrotation Xrotation
						JOINT LeftForeArm
						{
							OFFSET 4.87796 -0.00000 -0.00000
							CHANNELS 3 Zrotation Yrotation Xrotation
							JOINT LeftHand
							{
								OFFSET 3.23169 -0.00000 0.00000
								CHANNELS 3 Zrotation Yrotation Xrotation
								JOINT LeftFingerBase
								{
									OFFSET 0 0 0
									CHANNELS 3 Zrotation Yrotation Xrotation
									JOINT LeftHandIndex1
									{
										OFFSET 0.73132 -0.00000 0.00000
										CHANNELS 3 Zrotation Yrotation Xrotation
										End Site
										{
											OFFSET 0.58961 -0.00000 0.00000
										}
									}
								}
								JOINT LThumb
								{
									OFFSET 0 0 0
									CHANNELS 3 Zrotation Yrotation Xrotation
									End Site
									{
										OFFSET 0.59861 -0.00000 0.59861
									}
								}
							}
						}
					}
				}
				JOINT RightShoulder
				{
					OFFSET 0 0 0
					CHANNELS 3 Zrotation Yrotation Xrotation
					JOINT RightArm
					{
						OFFSET -3.66103 0.75145 0.08281
						CHANNELS 3 Zrotation Yrotation Xrotation
						JOINT RightForeArm
						{
							OFFSET -4.91430 -0.00000 0.00000
							CHANNELS 3 Zrotation Yrotation Xrotation
							JOINT RightHand
							{
								OFFSET -3.29093 -0.00000 0.00000
								CHANNELS 3 Zrotation Yrotation Xrotation
								JOINT RightFingerBase
								{
									OFFSET 0 0 0
									CHANNELS 3 Zrotation Yrotation Xrotation
									JOINT RightHandIndex1
									{
										OFFSET -0.54512 -0.00000 0.00000
										CHANNELS 3 Zrotation Yrotation Xrotation
										End Site
										{
											OFFSET -0.43949 -0.00000 0.00000
										}
									}
								}
								JOINT RThumb
								{
									OFFSET 0 0 0
									CHANNELS 3 Zrotation Yrotation Xrotation
									End Site
									{
										OFFSET -0.44620 -0.00000 0.44620
									}
								}
							}
						}
					}
				}
			}
		}
	}
}
MOTION
Frames: 9
Frame Time: .0083333
26.6867 15.5290 -10.4398 -169.8110 -73.0005 183.1030 0.0000 0.0000 0.0000 -28.0843 16.7503 -21.0573 8.5016 16.4761 54.3500 0.3658 -12.7600 -13.1266 0.4833 -4.4581 -12.3691 0.0000 0.0000 0.0000 0.2590 21.6008 -50.4380 -8.4126 -16.4145 54.0356 -0.8285 2.3627 -16.5616 -0.1111 -2.1487 5.9167 9.7682 -3.6955 1.6547 0.1084 -4.8047 0.9793 -5.2039 -2.4052 -0.6966 3.6756 9.7529 -1.9299 -4.2649 12.3666 -14.2975 -2.3055 5.9174 -3.8193 0.0000 -0.0000 0.0000 -76.6233 -23.0062 82.8398 52.4896 -53.9515 -28.1749 -0.0000 -0.0000 6.8314 28.6722 -32.1775 -16.2368 -7.1250 0.0000 -0.0000 -1.7874 -5.6498 1.9555 0.0000 -0.0000 0.0000 85.5730 -2.3221 49.6886 -62.1234 56.8497 -36.1135 0.0000 -0.0000 -15.1861 -24.4377 -9.1862 4.1492 7.1250 -0.0000 -0.0000 2.1951 -40.0429 0.2684
26.5378 15.5152 -10.4746 -170.8790 -72.7048 184.3430 0.0000 0.0000 0.0000 -27.6861 17.4975 -22.7464 9.3439 17.0240 57.2721 0.3359 -12.0031 -12.4762 0.6860 -5.2954 -14.7529 0.0000 0.0000 0.0000 -0.6948 21.9215 -50.0134 -8.3551 -16.3743 53.8319 -0.8068 2.3965 -16.3285 -0.0116 -0.6941 1.9074 10.1065 -3.7586 1.8580 0.2002 -4.8751 1.1694 -5.2854 -2.4323 -0.6417 3.9142 9.9409 -1.8766 -4.7125 12.5854 -14.2503 -2.4894 6.0350 -3.7562 0.0000 0.0000 0.0000 -76.4089 -22.9909 82.5524 49.1468 -52.6456 -25.4944 -0.0000 -0.0000 6.6591 27.6751 -31.5016 -15.3251 -7.1250 0.0000 -0.0000 -2.2169 -4.6806 2.3921 0.0000 0.0000 0.0000 85.4963 -2.4049 48.1624 -58.0359 55.7634 -32.7120 0.0000 -0.0000 -14.2847 -24.9496 -9.9547 4.5981 7.1250 -0.0000 -0.0000 1.8224 -40.9287 0.1830
26.3875 15.4919 -10.5109 -171.8840 -72.3727 185.5420 0.0000 0.0000 0.0000 -27.2371 18.2112 -24.4471 10.2228 17.5332 60.2304 0.3382 -11.0856 -12.1056 0.9296 -6.1421 -17.1971 0.0000 0.0000 0.0000 -1.5248 22.0490 -49.6485 -8.3100 -16.3426 53.6716 -0.8116 2.6839 -16.3258 -0.0526 1.4795 -4.0693 10.3997 -3.8211 2.0104 0.2708 -4.9533 1.3903 -5.3682 -2.4591 -0.5255 4.1760 10.1301 -1.7978 -5.1487 12.8065 -14.2717 -2.6786 6.1501 -3.7200 -0.0000 -0.0000 0.0000 -75.9526 -22.9613 82.0530 46.1334 -51.3118 -23.1201 -0.0000 -0.0000 6.3430 26.9217 -30.8828 -14.6090 -7.1250 0.0000 -0.0000 -2.5310 -3.8434 2.6975 -0.0000 -0.0000 0.0000 85.4253 -2.3348 46.6628 -54.0850 54.5158 -29.4695 0.0000 -0.0000 -13.4823 -25.3766 -10.6821 5.0246 7.1250 -0.0000 -0.0000 1.5186 -41.7674 0.1211
26.2367 15.4583 -10.5480 -172.7860 -71.9980 186.6450 0.0000 0.0000 0.0000 -26.7120 18.9383 -26.1040 11.1274 17.9969 63.1947 0.3615 -10.1089 -11.9850 1.2009 -6.9529 -19.5759 0.0000 0.0000 0.0000 -2.1984 21.9735 -49.3530 -8.2824 -16.3231 53.5737 -0.8549 3.3142 -16.6683 -0.3981 4.0509 -11.2199 10.6788 -3.8759 2.1494 0.3293 -5.0237 1.6098 -5.4568 -2.4811 -0.4018 4.3920 10.3027 -1.6343 -5.5395 13.0148 -14.3283 -2.8542 6.2601 -3.7177 0.0000 0.0000 0.0000 -75.3014 -22.8091 81.3605 43.4460 -49.9841 -21.0418 -0.0000 -0.0000 5.8698 26.4506 -30.3348 -14.1045 -7.1250 0.0000 -0.0000 -2.7047 -3.1554 2.8525 0.0000 0.0000 0.0000 85.3247 -2.1913 45.1849 -50.3149 53.1217 -26.4258 0.0000 -0.0000 -12.8217 -25.5955 -11.2314 5.3303 7.1250 -0.0000 -0.0000 1.3816 -42.3930 0.0889
26.0848 15.4159 -10.5846 -173.6090 -71.6347 187.6670 0.0000 0.0000 0.0000 -26.0952 19.6447 -27.6824 12.0453 18.4097 66.1322 0.3911 -9.2029 -12.0188 1.4430 -7.5942 -21.4883 0.0000 0.0000 0.0000 -2.7035 21.6473 -49.1253 -8.2771 -16.3194 53.5549 -0.9416 4.2814 -17.4023 -1.0493 6.5140 -18.2834 10.9594 -3.9394 2.2823 0.3743 -5.1063 1.8254 -5.5596 -2.5091 -0.2821 4.5229 10.4679 -1.4173 -5.8474 13.2250 -14.3872 -2.9943 6.3732 -3.7366 0.0000 0.0000 0.0000 -74.4872 -22.4852 80.4297 41.0505 -48.6801 -19.2245 -0.0000 -0.0000 5.3073 26.2158 -29.8716 -13.7796 -7.1250 0.0000 -0.0000 -2.7618 -2.6147 2.8882 0.0000 0.0000 0.0000 85.1781 -1.9988 43.7314 -46.7623 51.6032 -23.6120 0.0000 -0.0000 -12.2815 -25.6261 -11.5840 5.5018 7.1250 -0.0000 -0.0000 1.3934 -42.7835 0.0762
25.9317 15.3660 -10.6194 -174.4000 -71.2754 188.6510 0.0000 0.0000 0.0000 -25.4001 20.3272 -29.1808 12.9638 18.7690 69.0129 0.4107 -8.5062 -12.0456 1.6135 -8.0099 -22.7442 0.0000 0.0000 0.0000 -3.0474 21.0731 -48.9848 -8.2997 -16.3353 53.6352 -1.0679 5.4994 -18.4738 -1.8094 8.4573 -24.1118 11.2299 -4.0061 2.4260 0.4022 -5.1917 2.0376 -5.6733 -2.5386 -0.1732 4.6598 10.6185 -1.1965 -6.1671 13.4174 -14.4131 -3.1380 6.4796 -3.7431 -0.0000 0.0000 0.0000 -73.5497 -21.9700 79.2368 38.9043 -47.4072 -17.6283 -0.0000 -0.0000 4.6760 26.1580 -29.4434 -13.5733 -7.1250 0.0000 -0.0000 -2.7251 -2.1528 2.8287 -0.0000 0.0000 0.0000 84.9751 -1.7745 42.2858 -43.4394 49.9806 -21.0367 0.0000 -0.0000 -11.7993 -25.5667 -11.7808 5.5787 7.1250 -0.0000 -0.0000 1.4700 -42.9930 0.0728
25.7774 15.3096 -10.6513 -175.1660 -70.8697 189.6140 0.0000 0.0000 0.0000 -24.6481 21.0033 -30.6268 13.8721 19.0748 71.8135 0.4108 -8.1078 -11.9414 1.6867 -8.1805 -23.2637 0.0000 0.0000 0.0000 -3.2447 20.2931 -48.9746 -8.3559 -16.3749 53.8347 -1.2225 6.8365 -19.7545 -2.4593 9.7634 -28.2140 11.4813 -4.0552 2.6011 0.4115 -5.2493 2.2417 -5.7946 -2.5553 -0.0856 4.7829 10.7593 -0.9477 -6.4852 13.5985 -14.4570 -3.2829 6.5814 -3.7623 -0.0000 0.0000 0.0000 -72.5187 -21.2610 77.7935 36.9654 -46.1657 -16.2151 -0.0000 -0.0000 3.9427 26.2388 -28.9847 -13.4334 -7.1250 0.0000 -0.0000 -2.6044 -1.6905 2.6829 -0.0000 0.0000 0.0000 84.7071 -1.5512 40.8153 -40.3499 48.2758 -18.7000 0.0000 -0.0000 -11.2933 -25.4970 -11.8619 5.5989 7.1250 -0.0000 -0.0000 1.5428 -43.0742 0.0733
25.6221 15.2481 -10.6792 -175.9000 -70.3688 190.5650 0.0000 0.0000 0.0000 -23.8607 21.6833 -32.0613 14.7617 19.3290 74.5178 0.3837 -8.1420 -11.6190 1.6936 -8.1965 -23.3124 0.0000 0.0000 0.0000 -3.3307 19.3623 -49.1432 -8.4524 -16.4421 54.1762 -1.3918 8.1351 -21.1061 -2.9220 10.5678 -30.8356 11.7034 -4.0674 2.8205 0.4009 -5.2509 2.4313 -5.9201 -2.5460 -0.0269 4.9129 10.8861 -0.6650 -6.8229 13.7599 -14.5357 -3.4409 6.6743 -3.7987 0.0000 -0.0000 0.0000 -71.4159 -20.3715 76.1182 35.1765 -44.9377 -14.9379 -0.0000 -0.0000 3.1110 26.4521 -28.4541 -13.3360 -7.1250 0.0000 -0.0000 -2.3958 -1.1820 2.4469 0.0000 -0.0000 0.0000 84.3611 -1.3820 39.3050 -37.5239 46.5326 -16.6192 0.0000 -0.0000 -10.7173 -25.5263 -11.9284 5.6370 7.1250 -0.0000 -0.0000 1.5241 -43.1505 0.0696
25.4659 15.1837 -10.7023 -176.5720 -69.7363 191.4880 0.0000 0.0000 0.0000 -23.0556 22.3748 -33.5382 15.6223 19.5342 77.1044 0.3275 -8.5071 -11.0220 1.6928 -8.1945 -23.3065 0.0000 0.0000 0.0000 -3.3599 18.3665 -49.5233 -8.5948 -16.5397 54.6778 -1.5598 9.3400 -22.3952 -3.2083 11.0249 -32.3638 11.8855 -4.0239 3.1026 0.3744 -5.1690 2.6045 -6.0407 -2.4976 -0.0025 5.0678 10.9964 -0.3627 -7.1952 13.8952 -14.6586 -3.6198 6.7541 -3.8513 -0.0000 0.0000 0.0000 -70.2748 -19.3397 74.2538 33.4740 -43.6912 -13.7484 -0.0000 -0.0000 2.1410 26.8150 -27.8283 -13.2768 -7.1250 0.0000 -0.0000 -2.0847 -0.6055 2.1080 -0.0000 0.0000 0.0000 83.9305 -1.3019 37.7309 -34.9649 44.7870 -14.7886 0.0000 -0.0000 -10.0599 -25.6609 -12.0937 5.7477 7.1250 -0.0000 -0.0000 1.4214 -43.3469 0.0580
